<svg xmlns="http://www.w3.org/2000/svg" xmlns:xlink="http://www.w3.org/1999/xlink" width="1920" zoomAndPan="magnify" viewBox="0 0 1440 809.999993" height="1080" preserveAspectRatio="xMidYMid meet" version="1.0"><defs><g/><clipPath id="52ccd2f245"><path d="M 449.5625 470.714844 L 700.808594 470.714844 L 700.808594 498.65625 L 449.5625 498.65625 Z M 449.5625 470.714844 " clip-rule="nonzero"/></clipPath><clipPath id="ac9a301bb4"><path d="M 742.515625 306.628906 L 993.765625 306.628906 L 993.765625 334.570312 L 742.515625 334.570312 Z M 742.515625 306.628906 " clip-rule="nonzero"/></clipPath></defs><g clip-path="url(#52ccd2f245)"><path fill="#ffffff" d="M 449.5625 470.714844 L 700.796875 470.714844 L 700.796875 498.65625 L 449.5625 498.65625 Z M 449.5625 470.714844 " fill-opacity="1" fill-rule="nonzero"/></g><g clip-path="url(#ac9a301bb4)"><path fill="#ffffff" d="M 742.515625 306.628906 L 993.753906 306.628906 L 993.753906 334.570312 L 742.515625 334.570312 Z M 742.515625 306.628906 " fill-opacity="1" fill-rule="nonzero"/></g><g fill="#ffffff" fill-opacity="1"><g transform="translate(425.337513, 420.818314)"><g><path d="M 65.710938 2.273438 C 95.566406 2.273438 118.765625 -15.902344 124.445312 -43.484375 L 97.835938 -43.484375 C 93.132812 -30.503906 81.125 -22.226562 66.199219 -22.226562 C 46.890625 -22.226562 33.261719 -36.34375 33.261719 -56.789062 C 33.261719 -77.230469 47.050781 -91.347656 66.359375 -91.347656 C 80.800781 -91.347656 92.644531 -83.558594 97.027344 -71.066406 L 123.632812 -71.066406 C 117.144531 -98.324219 94.429688 -115.847656 65.550781 -115.847656 C 31.152344 -115.847656 6.976562 -91.507812 6.976562 -56.789062 C 6.976562 -22.066406 31.152344 2.273438 65.710938 2.273438 Z M 65.710938 2.273438 "/></g></g></g><g fill="#ffffff" fill-opacity="1"><g transform="translate(589.856375, 420.818314)"><g><path d="M 67.496094 2.273438 C 103.027344 2.273438 128.175781 -22.066406 128.175781 -56.789062 C 128.175781 -91.507812 103.027344 -115.847656 67.496094 -115.847656 C 31.964844 -115.847656 6.976562 -91.507812 6.976562 -56.789062 C 6.976562 -22.066406 31.964844 2.273438 67.496094 2.273438 Z M 33.261719 -56.789062 C 33.261719 -77.230469 47.378906 -91.347656 67.496094 -91.347656 C 87.777344 -91.347656 101.730469 -77.230469 101.730469 -56.789062 C 101.730469 -36.34375 87.777344 -22.226562 67.496094 -22.226562 C 47.378906 -22.226562 33.261719 -36.34375 33.261719 -56.789062 Z M 33.261719 -56.789062 "/></g></g></g><g fill="#ffffff" fill-opacity="1"><g transform="translate(743.536961, 492.622636)"><g><path d="M 13.628906 0 L 58.574219 0 C 94.429688 0 118.441406 -22.878906 118.441406 -56.789062 C 118.441406 -90.535156 94.429688 -113.574219 58.574219 -113.574219 L 13.628906 -113.574219 Z M 39.425781 -23.6875 L 39.425781 -89.886719 L 57.761719 -89.886719 C 78.203125 -89.886719 91.996094 -76.746094 91.996094 -56.789062 C 91.996094 -36.832031 78.203125 -23.6875 58.085938 -23.6875 Z M 39.425781 -23.6875 "/></g></g></g><g fill="#ffffff" fill-opacity="1"><g transform="translate(902.377312, 492.622636)"><g><path d="M 43.320312 0 L 69.117188 0 L 69.117188 -40.074219 L 110.816406 -113.574219 L 81.449219 -113.574219 L 67.496094 -87.289062 L 56.300781 -66.683594 L 44.941406 -87.289062 L 30.828125 -113.574219 L 1.460938 -113.574219 L 43.320312 -39.75 Z M 43.320312 0 "/></g></g></g></svg>